<svg viewBox="0 0 24 24" xmlns="http://www.w3.org/2000/svg" fill="#3776AB"><path d="M14.25.18l.9.2.73.26.59.3.45.32.34.34.25.34.16.33.1.3.04.26.02.2-.01.13V8.5l-.05.63-.13.55-.21.46-.26.38-.3.31-.33.25-.35.19-.35.14-.33.1-.3.07-.26.04-.21.02H8.77l-.69.05-.59.14-.5.22-.41.27-.33.32-.27.35-.2.36-.15.37-.1.35-.07.32-.04.27-.02.21v3.06H3.17l-.21-.03-.28-.07-.32-.12-.35-.18-.36-.26-.36-.36-.35-.46-.32-.59-.28-.73-.21-.88-.14-1.05L0 11.97l.06-1.22.16-1.04.24-.87.32-.71.36-.57.4-.44.42-.33.42-.24.4-.16.36-.1.32-.05.26-.02.21-.01h5.74l.69-.05.59-.14.5-.22.41-.27.33-.32.27-.35.2-.36.15-.37.1-.35.07-.32.04-.27.02-.21V6.07h2.09l.14.01zm-6.47 14.25a1.1 1.1 0 100 2.2 1.1 1.1 0 000-2.2zM24 11.97l-.06 1.22-.16 1.04-.24.87-.32.71-.36.57-.4.44-.42.33-.42.24-.4.16-.36.1-.32.05-.26.02-.21.01h-5.74l-.69.05-.59.14-.5.22-.41.27-.33.32-.27.35-.2.36-.15.37-.1.35-.07.32-.04.27-.02.21v3.06h-2.09l-.14-.01-.21-.03-.28-.07-.32-.12-.35-.18-.36-.26-.36-.36-.35-.46-.32-.59-.28-.73-.21-.88-.14-1.05L9.75 12l.06-1.22.16-1.04.24-.87.32-.71.36-.57.4-.44.42-.33.42-.24.4-.16.36-.1.32-.05.26-.02.21-.01h5.74l.69-.05.59-.14.5-.22.41-.27.33-.32.27-.35.2-.36.15-.37.1-.35.07-.32.04-.27.02-.21V5.5l.05-.63.13-.55.21-.46.26-.38.3-.31.33-.25.35-.19.35-.14.33-.1.3-.07.26-.04.21-.02H20.83l.21.03.28.07.32.12.35.18.36.26.36.36.35.46.32.59.28.73.21.88.14 1.05L24 11.97zm-6.47-5.43a1.1 1.1 0 100-2.2 1.1 1.1 0 000 2.2z"/></svg>
