<svg xmlns="http://www.w3.org/2000/svg" viewBox="0 0 640 360" width="640" height="360" style="background:#0d0d18">
  <defs>
    <radialGradient id="glow" cx="50%" cy="50%" r="50%">
      <stop offset="0%" stop-color="#c9b8d8" stop-opacity="1"/>
      <stop offset="100%" stop-color="#8b7aa8" stop-opacity="0.3"/>
    </radialGradient>
  </defs>
  <script type="text/javascript">
  </script>
  <!-- Dot-art laptop/computer portrait using circles -->
  <!-- Monitor outer frame top row -->
  <g fill="url(#glow)" opacity="0.85">
    <!-- Top frame -->
    <circle cx="180" cy="60" r="3.5"/><circle cx="196" cy="60" r="3.5"/><circle cx="212" cy="60" r="3.5"/><circle cx="228" cy="60" r="3.5"/><circle cx="244" cy="60" r="3.5"/><circle cx="260" cy="60" r="3.5"/><circle cx="276" cy="60" r="3.5"/><circle cx="292" cy="60" r="3.5"/><circle cx="308" cy="60" r="3.5"/><circle cx="324" cy="60" r="3.5"/><circle cx="340" cy="60" r="3.5"/><circle cx="356" cy="60" r="3.5"/><circle cx="372" cy="60" r="3.5"/><circle cx="388" cy="60" r="3.5"/><circle cx="404" cy="60" r="3.5"/><circle cx="420" cy="60" r="3.5"/><circle cx="436" cy="60" r="3.5"/><circle cx="452" cy="60" r="3.5"/><circle cx="460" cy="60" r="3.5"/>
    <!-- Left frame -->
    <circle cx="180" cy="76" r="3.5"/><circle cx="180" cy="92" r="3.5"/><circle cx="180" cy="108" r="3.5"/><circle cx="180" cy="124" r="3.5"/><circle cx="180" cy="140" r="3.5"/><circle cx="180" cy="156" r="3.5"/><circle cx="180" cy="172" r="3.5"/><circle cx="180" cy="188" r="3.5"/><circle cx="180" cy="204" r="3.5"/><circle cx="180" cy="220" r="3.5"/>
    <!-- Right frame -->
    <circle cx="460" cy="76" r="3.5"/><circle cx="460" cy="92" r="3.5"/><circle cx="460" cy="108" r="3.5"/><circle cx="460" cy="124" r="3.5"/><circle cx="460" cy="140" r="3.5"/><circle cx="460" cy="156" r="3.5"/><circle cx="460" cy="172" r="3.5"/><circle cx="460" cy="188" r="3.5"/><circle cx="460" cy="204" r="3.5"/><circle cx="460" cy="220" r="3.5"/>
    <!-- Bottom frame of screen -->
    <circle cx="180" cy="230" r="3.5"/><circle cx="196" cy="230" r="3.5"/><circle cx="212" cy="230" r="3.5"/><circle cx="228" cy="230" r="3.5"/><circle cx="244" cy="230" r="3.5"/><circle cx="260" cy="230" r="3.5"/><circle cx="276" cy="230" r="3.5"/><circle cx="292" cy="230" r="3.5"/><circle cx="308" cy="230" r="3.5"/><circle cx="324" cy="230" r="3.5"/><circle cx="340" cy="230" r="3.5"/><circle cx="356" cy="230" r="3.5"/><circle cx="372" cy="230" r="3.5"/><circle cx="388" cy="230" r="3.5"/><circle cx="404" cy="230" r="3.5"/><circle cx="420" cy="230" r="3.5"/><circle cx="436" cy="230" r="3.5"/><circle cx="452" cy="230" r="3.5"/><circle cx="460" cy="230" r="3.5"/>
    <!-- Screen content: code lines (dimmer inner dots) -->
  </g>
  <!-- Screen inner glow -->
  <g fill="#a89bc4" opacity="0.5">
    <!-- line 1: >>> prompt -->
    <circle cx="204" cy="88" r="2.5"/><circle cx="212" cy="88" r="2.5"/><circle cx="220" cy="88" r="2.5"/>
    <circle cx="232" cy="88" r="2.5"/><circle cx="240" cy="88" r="2.5"/><circle cx="248" cy="88" r="2.5"/><circle cx="256" cy="88" r="2.5"/><circle cx="264" cy="88" r="2.5"/>
    <!-- line 2 -->
    <circle cx="204" cy="104" r="2.5"/><circle cx="212" cy="104" r="2.5"/><circle cx="220" cy="104" r="2.5"/><circle cx="228" cy="104" r="2.5"/>
    <circle cx="240" cy="104" r="2.5"/><circle cx="248" cy="104" r="2.5"/>
    <circle cx="260" cy="104" r="2.5"/><circle cx="268" cy="104" r="2.5"/><circle cx="276" cy="104" r="2.5"/><circle cx="284" cy="104" r="2.5"/><circle cx="292" cy="104" r="2.5"/>
    <!-- line 3 -->
    <circle cx="204" cy="120" r="2.5"/><circle cx="212" cy="120" r="2.5"/><circle cx="220" cy="120" r="2.5"/><circle cx="228" cy="120" r="2.5"/><circle cx="236" cy="120" r="2.5"/>
    <circle cx="248" cy="120" r="2.5"/><circle cx="256" cy="120" r="2.5"/><circle cx="264" cy="120" r="2.5"/>
    <circle cx="276" cy="120" r="2.5"/><circle cx="284" cy="120" r="2.5"/><circle cx="292" cy="120" r="2.5"/><circle cx="300" cy="120" r="2.5"/><circle cx="308" cy="120" r="2.5"/>
    <!-- line 4 (indented) -->
    <circle cx="220" cy="136" r="2.5"/><circle cx="228" cy="136" r="2.5"/><circle cx="236" cy="136" r="2.5"/>
    <circle cx="248" cy="136" r="2.5"/><circle cx="256" cy="136" r="2.5"/><circle cx="264" cy="136" r="2.5"/><circle cx="272" cy="136" r="2.5"/>
    <!-- line 5 -->
    <circle cx="204" cy="152" r="2.5"/><circle cx="212" cy="152" r="2.5"/>
    <circle cx="224" cy="152" r="2.5"/><circle cx="232" cy="152" r="2.5"/><circle cx="240" cy="152" r="2.5"/><circle cx="248" cy="152" r="2.5"/>
    <!-- line 6 (longer) -->
    <circle cx="204" cy="168" r="2.5"/><circle cx="212" cy="168" r="2.5"/><circle cx="220" cy="168" r="2.5"/><circle cx="228" cy="168" r="2.5"/>
    <circle cx="240" cy="168" r="2.5"/><circle cx="248" cy="168" r="2.5"/><circle cx="256" cy="168" r="2.5"/><circle cx="264" cy="168" r="2.5"/><circle cx="272" cy="168" r="2.5"/><circle cx="280" cy="168" r="2.5"/>
    <circle cx="292" cy="168" r="2.5"/><circle cx="300" cy="168" r="2.5"/><circle cx="308" cy="168" r="2.5"/>
    <!-- cursor blink -->
    <circle cx="204" cy="184" r="2.5"/><circle cx="212" cy="184" r="2.5"/><circle cx="220" cy="184" r="2.5"/>
    <rect x="228" y="178" width="8" height="12" rx="1" fill="#c9b8d8" opacity="0.9"/>
    <!-- line 7 -->
    <circle cx="204" cy="202" r="2.5"/><circle cx="212" cy="202" r="2.5"/><circle cx="220" cy="202" r="2.5"/><circle cx="228" cy="202" r="2.5"/><circle cx="236" cy="202" r="2.5"/><circle cx="244" cy="202" r="2.5"/>
    <circle cx="256" cy="202" r="2.5"/><circle cx="264" cy="202" r="2.5"/>
  </g>
  <!-- Stand neck -->
  <g fill="url(#glow)" opacity="0.85">
    <circle cx="308" cy="246" r="3.5"/><circle cx="320" cy="246" r="3.5"/><circle cx="332" cy="246" r="3.5"/>
    <circle cx="308" cy="262" r="3.5"/><circle cx="320" cy="262" r="3.5"/><circle cx="332" cy="262" r="3.5"/>
  </g>
  <!-- Stand base -->
  <g fill="url(#glow)" opacity="0.85">
    <circle cx="260" cy="278" r="3.5"/><circle cx="276" cy="278" r="3.5"/><circle cx="292" cy="278" r="3.5"/><circle cx="308" cy="278" r="3.5"/><circle cx="324" cy="278" r="3.5"/><circle cx="340" cy="278" r="3.5"/><circle cx="356" cy="278" r="3.5"/><circle cx="372" cy="278" r="3.5"/>
    <circle cx="244" cy="294" r="3.5"/><circle cx="260" cy="294" r="3.5"/><circle cx="276" cy="294" r="3.5"/><circle cx="292" cy="294" r="3.5"/><circle cx="308" cy="294" r="3.5"/><circle cx="324" cy="294" r="3.5"/><circle cx="340" cy="294" r="3.5"/><circle cx="356" cy="294" r="3.5"/><circle cx="372" cy="294" r="3.5"/><circle cx="388" cy="294" r="3.5"/>
  </g>
  <!-- Keyboard -->
  <g fill="url(#glow)" opacity="0.6">
    <circle cx="196" cy="310" r="2.8"/><circle cx="210" cy="310" r="2.8"/><circle cx="224" cy="310" r="2.8"/><circle cx="238" cy="310" r="2.8"/><circle cx="252" cy="310" r="2.8"/><circle cx="266" cy="310" r="2.8"/><circle cx="280" cy="310" r="2.8"/><circle cx="294" cy="310" r="2.8"/><circle cx="308" cy="310" r="2.8"/><circle cx="322" cy="310" r="2.8"/><circle cx="336" cy="310" r="2.8"/><circle cx="350" cy="310" r="2.8"/><circle cx="364" cy="310" r="2.8"/><circle cx="378" cy="310" r="2.8"/><circle cx="392" cy="310" r="2.8"/><circle cx="406" cy="310" r="2.8"/><circle cx="420" cy="310" r="2.8"/><circle cx="434" cy="310" r="2.8"/><circle cx="448" cy="310" r="2.8"/>
    <circle cx="204" cy="324" r="2.8"/><circle cx="218" cy="324" r="2.8"/><circle cx="232" cy="324" r="2.8"/><circle cx="246" cy="324" r="2.8"/><circle cx="260" cy="324" r="2.8"/><circle cx="274" cy="324" r="2.8"/><circle cx="288" cy="324" r="2.8"/><circle cx="302" cy="324" r="2.8"/><circle cx="316" cy="324" r="2.8"/><circle cx="330" cy="324" r="2.8"/><circle cx="344" cy="324" r="2.8"/><circle cx="358" cy="324" r="2.8"/><circle cx="372" cy="324" r="2.8"/><circle cx="386" cy="324" r="2.8"/><circle cx="400" cy="324" r="2.8"/><circle cx="414" cy="324" r="2.8"/><circle cx="428" cy="324" r="2.8"/><circle cx="442" cy="324" r="2.8"/>
    <!-- spacebar row -->
    <circle cx="240" cy="338" r="2.8"/><circle cx="256" cy="338" r="2.8"/><circle cx="272" cy="338" r="2.8"/><circle cx="288" cy="338" r="2.8"/><circle cx="304" cy="338" r="2.8"/><circle cx="320" cy="338" r="2.8"/><circle cx="336" cy="338" r="2.8"/><circle cx="352" cy="338" r="2.8"/><circle cx="368" cy="338" r="2.8"/><circle cx="384" cy="338" r="2.8"/>
  </g>
</svg>
